PathFileType	4	(X/Y/Z)	/home/abdul/Desktop/myosuite/custom_workspace/IK/output/S13_12_1.trc
DataRate	CameraRate	NumFrames	NumMarkers	Units	OrigDataRate	OrigDataStartFrame	OrigNumFrames
200.0	200.0	28	3	mm	200.0	188	1500
Frame#	Time	V_Shoulder			V_Elbow			V_Wrist		
		X1	Y1	Z1	X2	Y2	Z2	X3	Y3	Z3

188	0.935	-93.00834074870647	611.7944909330128	327.5963022721202	-247.8424167336304	528.4339170758026	11.594455228554423	-229.48731458635956	265.564524271128	61.71993271821685
189	0.94	-92.91252730329147	611.672451460652	327.6710381904016	-247.62286898055729	528.0061104037643	11.732999265583167	-228.0151934731873	265.27755212564074	62.09046126150121
190	0.945	-92.81424518919486	611.5477147752476	327.7467342402312	-247.38876189204373	527.5601276282421	11.872582676289884	-226.52995835139333	264.97285668344364	62.447879681285585
191	0.95	-92.7134811924837	611.4202714640857	327.82337750753845	-247.1402632270949	527.0961959541808	12.013215875547347	-225.03265204819553	264.6505758435517	62.791884628737776
192	0.955	-92.61022363864684	611.2901133982501	327.90095443536524	-246.87756601528343	526.614575777897	12.15490963536902	-223.52432656108914	264.3108838831174	63.122206640141485
193	0.96	-92.5044624233203	611.1572337539827	327.97945082846024	-246.60088784627294	526.1155599805343	12.297674966951675	-222.0060408092678	263.9539908247928	63.43861041671878
194	0.965	-92.39618904147623	611.0216270328975	328.05885185857346	-246.31047008507784	525.5994731210207	12.441522995659238	-220.47885839652236	263.5801416784908	63.740894976244206
195	0.97	-92.28539661502641	610.8832890810182	328.13914207045144	-246.00657701650167	525.0666705319516	12.586464829196284	-218.94384539260403	263.18961556148395	64.02889367744038
196	0.975	-92.17207991879259	610.7422171066049	328.2203053885342	-245.6894949224897	524.517537322215	12.732511419273273	-217.40206813983636	262.7827247013564	64.30247411873493
197	0.98	-92.05623540479901	610.59840969674	328.3023251243547	-245.35953109641122	523.9524872905663	12.87967341712046	-215.85459109153172	262.35981332687504	64.56153791353367
198	0.985	-91.93786122484426	610.4518668326447	328.3851839846368	-245.01701279854163	523.3719617547139	13.027961023263078	-214.3024746885169	261.9212564523627	64.80602034472147
199	0.99	-91.81695725131283	610.3025899037009	328.46886408009215	-244.6622861572557	522.7764283008207	13.177383832026438	-212.74677327979845	261.46745856164046	65.0358899016363
200	0.995	-91.6935250961888	610.150581720151	328.55334693491017	-244.295715020655	522.1663794586298	13.327950671295486	-211.1885330931057	260.9988521980522	65.25114770327272
201	1.0	-91.56756812823699	609.9958465244582	328.6386134969384	-243.91767976354646	521.5423313077104	13.479669438108566	-209.62879026073762	260.51589646749244	65.4518268119544
202	1.005	-91.43909148831996	609.8383900013059	328.7246441485472	-243.52857605485508	520.9048220205748	13.632546930719318	-208.06856890581503	260.0190754617232	65.63799144216921
203	1.01	-91.30810210282168	609.678219286217	328.81141871817096	-243.12881359069763	520.2544103486416	13.78658867781291	-206.50887929369864	259.50889660958836	65.80973606968351
204	1.015	-91.17460869515105	609.5153429727824	328.8989164925195	-242.7188147984585	519.5916740572156	13.941798765613123	-204.95071605298352	258.9858889640093	65.96718444644225
205	1.02	-91.03862179530307	609.3497711184825	328.9871162294498	-242.29901351730044	518.9172083158168	14.098179663664133	-203.3950564701214	258.450601432878	66.11048852711531
206	1.025	-90.90015374745633	609.1815152490936	329.0759961714884	-241.86985366060418	518.2316240503245	14.255732050115228	-201.8428588613545	257.90360096214374	66.23982731347043
207	1.03	-90.75921871559007	609.0105883616699	329.1655340599925	-241.43178786586748	517.5355462634999	14.414454637377037	-200.29506102527432	257.34547067952724	66.35540562303278
208	1.035	-90.61583268710625	608.8370049260993	329.25570714993955	-240.98527613760177	516.8296123305138	14.574343999054348	-198.75257877894518	256.7768080073802	66.45745278873511
209	1.04	-90.47001347444535	608.6607808852264	329.34649222532863	-240.53078448874507	516.1144702761435	14.735394399092053	-197.21630458015568	256.19822275324924	66.54622129646566
210	1.045	-90.32178071468776	608.4819336535444	329.4378656151821	-240.0687835860636	515.3907770403032	14.897597624097573	-195.68710623799052	255.61033518669086	66.62198536758537
211	1.05	-90.17115586713544	608.3004821144576	329.5298032101302	-239.59974740494147	514.6591967385359	15.060942819824039	-194.16582571354138	255.01377411082976	66.68503949361096
212	1.055	-90.01816220887203	608.11644661612	329.62228047956256	-239.12415189885755	513.9203989240398	15.22541633281409	-192.65327801221179	254.40917493704757	66.73569693034584
213	1.06	-89.86282482830238	607.9298489658551	329.71527248932904	-238.64247368872407	513.1750568576994	15.391001558213196	-191.15025016871033	253.79717777104312	66.77428815878685
214	1.065	-89.70517061667557	607.7407124231681	329.80875391997074	-238.1551887771109	512.4238457924741	15.55767879476437	-189.6575003254735	253.17842551831262	66.8011593201424
215	1.07	-89.54522825759868	607.5490616913609	329.902699085462	-237.66277129220538	511.6674412783416	15.725425107992503	-188.175756904918	252.55356201686573	66.8166706322676
